<svg xmlns="http://www.w3.org/2000/svg" viewBox="0 0 1200 900">
    <style>@keyframes a0_o{0%{opacity:1}7.5%{opacity:0}75%{opacity:0}82.5%{opacity:1}100%{opacity:1}}@keyframes
        a0_do{0%{stroke-dashoffset:0px}100%{stroke-dashoffset:404px}}@keyframes
        a1_o{0%{opacity:0}22.5%{opacity:0}37.5%{opacity:1}57.5%{opacity:1}65%{opacity:0}100%{opacity:0}}@keyframes
        a1_do{0%{stroke-dashoffset:0px}100%{stroke-dashoffset:404px}}
    </style>
    <path fill="#fafafa" stroke="#fdb26f" stroke-width="3" stroke-dasharray="10"
          d="M320.6 594.8h548.8v279.4H320.6z"></path>
    <g fill="none" fill-rule="evenodd">
        <g fill-rule="nonzero">
            <path d="M836.02 528.74v22.6H356.9v-22.6c0-3.164 2.486-5.65 5.65-5.65h467.82c3.164 0 5.65 2.486 5.65 5.65z"
                  fill="#d2d2d2"></path>
            <path fill="#a3a3a3"
                  d="M364.81 529.87h4.52v4.52h-4.52zm6.78 0h4.52v4.52h-4.52zm6.78 0h4.52v4.52h-4.52z"></path>
        </g>
        <g fill-rule="nonzero">
            <path fill="#9eebcf" d="M472.16 550.21v97.18h-3.39v-97.18z"></path>
            <path stroke="#9eebcf" stroke-width="3" fill="#fff"
                  d="M477.81 549.645a6.5 6.5 0 11-14.69 0 6.5 6.5 0 1114.69 0z"></path>
            <path fill="#9eebcf" d="M470.465 651.91l-6.215-9.04h12.43z"></path>
        </g>
        <path d="M582.9 838.473c0 1.13-.678 2.147-1.582 2.147H358.482c-.904 0-1.582-1.017-1.582-2.147V653.04c0-3.164 2.486-5.65 5.65-5.65h214.7c3.164 0 5.65 2.486 5.65 5.65v185.433z"
              fill="#ff003c"></path>
        <path d="M362.55 647.39h214.7c3.164 0 5.65 2.486 5.65 5.65v20.34h-226v-20.34c0-3.164 2.486-5.65 5.65-5.65z"
              fill="#ccc"></path>
        <path d="M376.11 661.515c0 2.825-2.26 5.085-5.085 5.085s-5.085-2.26-5.085-5.085 2.26-5.085 5.085-5.085 5.085 2.26 5.085 5.085"
              fill="#e74c3c"></path>
        <path d="M394.19 661.515c0 2.825-2.26 5.085-5.085 5.085s-5.085-2.26-5.085-5.085 2.26-5.085 5.085-5.085 5.085 2.26 5.085 5.085"
              fill="#f1c40f"></path>
        <path d="M411.14 661.515c0 2.825-2.26 5.085-5.085 5.085s-5.085-2.26-5.085-5.085 2.26-5.085 5.085-5.085 5.085 2.26 5.085 5.085"
              fill="#2ecc71"></path>
        <path d="M361.804 631.57h-3.477v-16.436h6.485q1.87 0 3.187.71 1.315.71 2.01 1.966.694 1.257.694 2.893 0 1.638-.706 2.89-.707 1.251-2.043 1.95-1.336.698-3.23.698h-4.132v-2.784h3.57q1.004 0 1.658-.35.654-.349.98-.971.324-.622.324-1.432 0-.82-.324-1.433-.326-.615-.983-.955-.659-.341-1.67-.341h-2.343v13.595zm16.46.24q-1.87 0-3.23-.798-1.36-.798-2.1-2.23-.737-1.434-.737-3.328 0-1.91.738-3.342.739-1.433 2.1-2.23 1.359-.8 3.229-.8t3.23.8q1.361.797 2.099 2.23.739 1.433.739 3.342 0 1.894-.74 3.327-.737 1.433-2.098 2.23-1.36.8-3.23.8zm.016-2.648q.85 0 1.421-.486.57-.486.862-1.328.294-.843.294-1.917 0-1.076-.294-1.919-.293-.842-.862-1.332-.57-.49-1.421-.49-.86 0-1.44.49-.582.49-.876 1.333-.292.842-.292 1.918 0 1.074.293 1.917t.875 1.33q.582.485 1.44.485zm12.825 2.61q-1.404 0-2.54-.727-1.136-.727-1.797-2.144-.663-1.416-.663-3.478 0-2.119.682-3.528.683-1.408 1.819-2.11 1.135-.703 2.491-.703 1.035 0 1.73.35.694.349 1.123.866t.654 1.015h.105v-6.179h3.41v16.436h-3.37v-1.974h-.145q-.241.513-.678 1.015t-1.132.83q-.693.33-1.689.33zm1.084-2.722q.826 0 1.4-.453.574-.454.882-1.272.31-.82.31-1.92t-.305-1.909q-.305-.81-.883-1.252-.578-.44-1.404-.44-.843 0-1.42.456-.58.458-.876 1.269-.296.81-.296 1.877 0 1.076.3 1.898t.875 1.285q.574.461 1.417.461zm17.824-13.916h3.266v16.436h-3.475v-13.137h-.096l-3.764 2.36v-3.084l4.068-2.576z"
              fill="#4a4a4a" fill-rule="nonzero"></path>
        <g fill-rule="nonzero">
            <path fill="#9eebcf" d="M725.28 550.21v97.18h-3.39v-97.18z"></path>
            <path stroke="#9eebcf" stroke-width="3" fill="#fff"
                  d="M730.93 549.645a6.5 6.5 0 11-14.69 0 6.5 6.5 0 1114.69 0z"></path>
            <path fill="#9eebcf" d="M723.585 651.91l-6.215-9.04h12.43z"></path>
        </g>
        <path d="M836.02 838.473c0 1.13-.678 2.147-1.582 2.147H611.602c-.904 0-1.582-1.017-1.582-2.147V653.04c0-3.164 2.486-5.65 5.65-5.65h214.7c3.164 0 5.65 2.486 5.65 5.65v185.433z"
              fill="#ff003c"></path>
        <path d="M615.67 647.39h214.7c3.164 0 5.65 2.486 5.65 5.65v20.34h-226v-20.34c0-3.164 2.486-5.65 5.65-5.65z"
              fill="#ccc"></path>
        <path d="M629.23 661.515c0 2.825-2.26 5.085-5.085 5.085s-5.085-2.26-5.085-5.085 2.26-5.085 5.085-5.085 5.085 2.26 5.085 5.085"
              fill="#e74c3c"></path>
        <path d="M647.31 661.515c0 2.825-2.26 5.085-5.085 5.085s-5.085-2.26-5.085-5.085 2.26-5.085 5.085-5.085 5.085 2.26 5.085 5.085"
              fill="#f1c40f"></path>
        <path d="M664.26 661.515c0 2.825-2.26 5.085-5.085 5.085s-5.085-2.26-5.085-5.085 2.26-5.085 5.085-5.085 5.085 2.26 5.085 5.085"
              fill="#2ecc71"></path>
        <path d="M614.924 631.57h-3.477v-16.436h6.485q1.87 0 3.187.71 1.315.71 2.01 1.966.694 1.257.694 2.893 0 1.638-.706 2.89-.707 1.251-2.043 1.95-1.336.698-3.23.698h-4.132v-2.784h3.57q1.004 0 1.658-.35.654-.349.98-.971.324-.622.324-1.432 0-.82-.324-1.433-.326-.615-.983-.955-.659-.341-1.67-.341h-2.343v13.595zm16.46.24q-1.87 0-3.23-.798-1.36-.798-2.1-2.23-.737-1.434-.737-3.328 0-1.91.738-3.342.739-1.433 2.1-2.23 1.359-.8 3.229-.8t3.23.8q1.361.797 2.099 2.23.739 1.433.739 3.342 0 1.894-.74 3.327-.737 1.433-2.098 2.23-1.36.8-3.23.8zm.016-2.648q.85 0 1.421-.486.57-.486.862-1.328.294-.843.294-1.917 0-1.076-.294-1.919-.293-.842-.862-1.332-.57-.49-1.421-.49-.86 0-1.44.49-.582.49-.876 1.333-.292.842-.292 1.918 0 1.074.293 1.917t.875 1.33q.582.485 1.44.485zm12.825 2.61q-1.404 0-2.54-.727-1.136-.727-1.797-2.144-.663-1.416-.663-3.478 0-2.119.682-3.528.683-1.408 1.819-2.11 1.135-.703 2.491-.703 1.035 0 1.73.35.694.349 1.123.866t.654 1.015h.105v-6.179h3.41v16.436h-3.37v-1.974h-.145q-.241.513-.678 1.015t-1.132.83q-.693.33-1.689.33zm1.084-2.722q.826 0 1.4-.453.574-.454.882-1.272.31-.82.31-1.92t-.305-1.909q-.305-.81-.883-1.252-.578-.44-1.404-.44-.843 0-1.42.456-.58.458-.876 1.269-.296.81-.296 1.877 0 1.076.3 1.898t.875 1.285q.574.461 1.417.461zm25.658 2.52h-11.719v-2.504l5.852-5.417q.745-.724 1.255-1.3.51-.578.775-1.135.265-.559.265-1.21 0-.722-.33-1.247-.328-.526-.898-.81-.57-.285-1.292-.285-.755 0-1.317.305t-.866.875q-.306.57-.306 1.356h-3.298q0-1.613.731-2.802.73-1.186 2.045-1.837 1.317-.65 3.034-.65 1.767 0 3.079.622 1.311.621 2.043 1.722.73 1.1.73 2.52 0 .93-.365 1.837-.365.908-1.297 2.012-.93 1.102-2.625 2.644l-2.398 2.35v.113h6.902v2.841z"
              fill="#4a4a4a" fill-rule="nonzero"></path>
    </g>
    <path d="M370.576 496.59h-3.331q-.096-.97-.827-1.508-.73-.538-1.982-.538-.85 0-1.437.237-.585.237-.894.654-.31.417-.31.947-.015.441.19.77.204.33.565.566.361.237.835.41.473.172 1.01.293l1.478.353q1.075.24 1.974.642.899.401 1.557.987.658.586 1.023 1.38.365.795.373 1.822-.008 1.509-.766 2.612-.759 1.104-2.183 1.71-1.425.606-3.431.606-1.99 0-3.463-.61t-2.295-1.81q-.823-1.2-.863-2.973h3.363q.056.826.477 1.376.421.55 1.132.827.71.276 1.609.276.883 0 1.537-.256.654-.257 1.015-.715.361-.457.361-1.051 0-.554-.325-.93-.325-.378-.947-.643-.622-.265-1.52-.482l-1.79-.449q-2.08-.506-3.283-1.581-1.204-1.075-1.196-2.897-.008-1.493.799-2.609.806-1.115 2.219-1.741 1.412-.626 3.21-.626 1.83 0 3.198.626 1.369.626 2.131 1.741.762 1.116.787 2.585zm8.105 11.95q-1.902 0-3.27-.774t-2.107-2.199q-.738-1.424-.738-3.374 0-1.903.738-3.34.739-1.436 2.083-2.238 1.344-.803 3.158-.803 1.22 0 2.275.39 1.056.389 1.846 1.167.79.779 1.232 1.954.441 1.176.441 2.75v.938H373.93v-2.119h7.191q0-.738-.32-1.308-.322-.57-.888-.895-.565-.325-1.312-.325-.778 0-1.376.357-.598.358-.935.956-.337.597-.345 1.328v2.014q0 .915.34 1.581.342.666.968 1.027.626.362 1.485.362.57 0 1.043-.16.473-.161.81-.482.338-.321.514-.787l3.162.209q-.24 1.14-.983 1.986-.742.847-1.91 1.316-1.168.47-2.693.47zm11.308-.24h-3.418v-12.327h3.314v2.15h.128q.338-1.147 1.132-1.737.795-.59 1.83-.59.257 0 .554.032.297.032.521.089v3.033q-.24-.072-.666-.128-.425-.056-.778-.056-.755 0-1.345.325t-.93.903q-.342.577-.342 1.332v6.974zm14.077-12.327h3.62l-4.31 12.327h-3.852l-4.31-12.327h3.612l2.56 8.82h.128l2.552-8.82zm8.788 12.327h-3.419v-12.327h3.42V508.3zm-1.693-13.916q-.763 0-1.308-.51-.546-.51-.546-1.224 0-.706.546-1.216.545-.51 1.3-.51.77 0 1.312.51t.542 1.216q0 .714-.542 1.224t-1.304.51zm9.992 14.157q-1.894 0-3.255-.807-1.36-.806-2.086-2.243-.727-1.437-.727-3.306 0-1.895.735-3.327.734-1.433 2.09-2.24 1.357-.806 3.227-.806 1.613 0 2.825.586 1.212.586 1.918 1.645.706 1.06.778 2.488h-3.226q-.136-.923-.718-1.488-.582-.566-1.521-.566-.795 0-1.385.43-.59.428-.919 1.247-.329.819-.329 1.982 0 1.18.325 2.007.326.826.92 1.26.593.433 1.388.433.586 0 1.055-.24.47-.241.779-.703.309-.461.405-1.111h3.226q-.08 1.412-.766 2.484-.686 1.07-1.89 1.673-1.204.602-2.85.602zm13.322 0q-1.902 0-3.27-.775-1.369-.774-2.107-2.199-.738-1.424-.738-3.374 0-1.903.738-3.34.738-1.436 2.083-2.238 1.344-.803 3.158-.803 1.22 0 2.275.39 1.055.389 1.846 1.167.79.779 1.232 1.954.441 1.176.441 2.75v.938h-10.409v-2.119h7.19q0-.738-.32-1.308-.321-.57-.887-.895-.566-.325-1.312-.325-.779 0-1.376.357-.598.358-.935.956-.338.597-.346 1.328v2.014q0 .915.342 1.581.34.666.967 1.027.626.362 1.484.362.57 0 1.044-.16.473-.161.81-.482.337-.321.514-.787l3.162.209q-.24 1.14-.983 1.986-.743.847-1.91 1.316-1.168.47-2.693.47zM276.9 784.862v5.827h-16.436v-5.875q0-2.48.983-4.27.983-1.79 2.82-2.756 1.839-.967 4.399-.967 2.568 0 4.414.967 1.846.967 2.833 2.769.987 1.801.987 4.305zm-13.459 2.352h10.482v-2.207q0-1.541-.55-2.596-.55-1.056-1.71-1.59-1.16-.533-2.997-.533-1.822 0-2.978.534-1.155.533-1.701 1.585-.546 1.05-.546 2.592v2.215zm13.7-18.515q0 1.902-.775 3.27-.774 1.369-2.199 2.107-1.424.738-3.374.738-1.903 0-3.34-.738-1.436-.738-2.238-2.083-.803-1.344-.803-3.158 0-1.22.39-2.275.389-1.055 1.167-1.846.779-.79 1.954-1.232 1.176-.441 2.75-.441h.938v10.409h-2.119v-7.19q-.738 0-1.308.32-.57.321-.895.887-.325.566-.325 1.312 0 .779.357 1.377.358.597.956.935.597.337 1.328.345h2.014q.915 0 1.581-.341.666-.342 1.027-.968.362-.626.362-1.484 0-.57-.16-1.044-.161-.473-.482-.81-.321-.337-.787-.514l.209-3.162q1.14.24 1.986.983.847.743 1.316 1.91.47 1.168.47 2.693zm4.382-11.308v3.419h-16.95v-3.371h2.07v-.152q-.497-.225-1.015-.655-.518-.429-.867-1.123t-.349-1.73q0-1.348.702-2.488.703-1.14 2.111-1.821 1.409-.683 3.527-.683 2.063 0 3.48.663 1.416.662 2.142 1.797.727 1.136.727 2.54 0 .996-.33 1.69-.328.694-.83 1.135-.502.442-1.015.675v.104h6.597zm-10.787.072q1.1 0 1.918-.305.82-.305 1.273-.883.453-.578.453-1.404 0-.835-.461-1.413-.462-.577-1.285-.878-.822-.301-1.898-.301-1.067 0-1.878.297-.81.296-1.268.874-.457.578-.457 1.42 0 .836.441 1.41.442.573 1.252.878.81.305 1.91.305zm-10.272-10.947v-3.419H276.9v3.42h-16.436zM277.14 734.8q0 1.87-.799 3.23-.798 1.36-2.23 2.099-1.433.738-3.327.738-1.91 0-3.343-.738t-2.231-2.099q-.799-1.36-.799-3.23 0-1.87.799-3.23.798-1.36 2.23-2.1 1.433-.737 3.344-.737 1.894 0 3.326.738 1.433.738 2.231 2.099.799 1.36.799 3.23zm-2.649-.016q0-.85-.485-1.42-.486-.57-1.328-.863-.843-.293-1.919-.293-1.075 0-1.918.293-.842.293-1.332.862-.49.57-.49 1.42 0 .86.49 1.441.49.582 1.332.875.843.293 1.918.293 1.076 0 1.919-.293.842-.293 1.328-.875.485-.581.485-1.44zm7.007-9.984q0 .65-.1 1.216-.101.566-.245.935l-2.56-.77q.28-.907.148-1.53-.133-.621-.967-.983l-.522-.2-12.68 4.422v-3.596l9.053-2.552v-.128l-9.053-2.576.016-3.62 13.643 4.791q.987.346 1.722.935.734.59 1.14 1.49.405.898.405 2.166zm-4.599-14.55v3.419h-12.327v-3.259h2.175v-.144q-1.084-.385-1.71-1.284-.626-.9-.626-2.151 0-1.268.63-2.16.63-.89 1.706-1.187v-.128q-1.06-.377-1.698-1.369-.638-.99-.638-2.347 0-1.726 1.096-2.805 1.095-1.08 3.102-1.08h8.29v3.411h-7.616q-1.028 0-1.541.546-.514.546-.514 1.364 0 .931.59 1.453t1.553.522h7.528v3.314h-7.688q-.907 0-1.445.518t-.538 1.36q0 .57.285 1.024.285.453.795.718.51.265 1.191.265h7.4zm.24-22.809q0 1.902-.774 3.27-.774 1.369-2.199 2.107-1.424.739-3.374.739-1.903 0-3.34-.739-1.436-.738-2.238-2.082-.803-1.345-.803-3.159 0-1.22.39-2.275.389-1.055 1.167-1.846.779-.79 1.954-1.232 1.176-.441 2.75-.441h.938v10.41h-2.119V685q-.738 0-1.308.321-.57.321-.895.887-.325.566-.325 1.312 0 .779.357 1.377.358.598.956.935.597.337 1.328.345h2.014q.915 0 1.581-.341.666-.341 1.027-.967.362-.626.362-1.485 0-.57-.16-1.043-.161-.474-.482-.811-.321-.337-.787-.514l.209-3.162q1.14.241 1.986.983.847.743 1.316 1.91.47 1.168.47 2.693zm-7.367-11.308h7.127v3.419h-12.327v-3.258h2.175v-.145q-1.076-.41-1.706-1.372-.63-.963-.63-2.336 0-1.284.562-2.239.562-.955 1.601-1.485 1.04-.53 2.476-.53h7.849v3.42h-7.24q-1.13-.008-1.769.577-.638.586-.638 1.614 0 .69.297 1.215.297.526.863.819.566.293 1.36.301zm-5.2-9.767v-7.424h2.568v7.424h-2.568zm8.988-1.685h-11.94v-3.42h11.493q.473 0 .734-.144t.365-.405q.105-.261.105-.606 0-.24-.044-.482l-.069-.369 2.545-.537q.08.256.188.722.108.465.133 1.131.048 1.236-.33 2.163-.377.927-1.171 1.44-.795.515-2.007.507z"
          fill="#4a4a4a"></path>
    <g fill="none" fill-rule="evenodd">
        <path d="M595.47 537.185l-40.68-73.45h81.36zm-11.3-297.755h22.6v224.305h-22.6z" fill="#b8e986"></path>
        <g fill-rule="nonzero">
            <path d="M449.7 239.43v-79.552c0-1.695 1.469-3.164 3.164-3.164h61.359c1.243-.452.791-.791.565-1.13-3.955-6.441-6.441-13.447-7.458-21.131-2.26-17.402 2.712-32.431 14.577-45.426.678-.791 1.243-1.469 2.034-2.147.565-.565.565-.565 0-1.13-1.808-1.695-3.503-3.616-4.859-5.876-3.164-4.972-4.972-10.396-5.085-16.385 0-1.469.226-1.695 1.582-1.017 1.469.678 2.938 1.356 4.52 1.808.226-2.599-.113-4.746-.113-7.006 0-.791-.113-1.582 0-2.373 0-1.13.339-1.356 1.356-.791a38.624 38.624 0 004.859 2.373c1.017.452 1.017.452.904-.678a35.44 35.44 0 010-8.475c.226-1.13.791-1.356 1.13-1.017.226.226.452.565.678.791 3.503 4.407 7.345 8.249 11.978 11.413 4.068 2.712 8.475 4.181 13.334 4.181 3.729.113 7.232-.678 10.622-2.034 3.164-1.13 6.328-2.486 9.605-3.164 3.277-.678 6.667-1.017 10.057-.226 5.65 1.356 9.492 5.085 11.978 10.283.904 2.034 1.356 4.068 1.695 6.215.113.904.113.904 1.017.791 4.972-.339 9.718.452 14.012 3.051 5.198 3.051 8.136 7.797 9.266 13.56.791 4.294.565 8.588-.113 12.882-.565 3.39-1.469 6.667-2.486 9.831-.339.791-.452.791.565 1.13 4.972 1.695 8.136 5.198 9.04 10.396 1.243 7.232-3.277 13.56-9.944 15.142a10.86 10.86 0 01-3.842.339c-.452-.113-.678.226-.791.678a63.611 63.611 0 01-3.842 10.057c-3.277 6.441-7.571 11.978-12.995 16.724-1.243.904-1.356 1.356-1.13 2.034.678 1.808 1.243 3.616 1.808 5.311 3.616 11.413 7.345 22.713 10.961 34.126.339.791.678 1.13 1.469 1.243 3.616.791 5.876 3.051 6.78 6.554.226.791.339 1.582.452 2.373.904-.565 1.243-1.017 1.808-1.469 1.469-1.243 3.164-1.582 5.085-.904 1.808.678 2.938 2.034 3.277 4.068.113.678.226.791.904.904 3.164.565 5.085 3.616 3.955 6.667-.226.791-.113 1.356.452 2.034 1.356 1.582 2.147 3.616 2.486 5.763.113.904 0 .904 1.017.904h18.645c0-1.921-.565-3.39-.904-4.972-2.147.113-3.616.452-4.972.904-.791.339-1.243.113-1.356-.339-.113-.452.226-.678.904-.904 1.356-.452 2.712-.791 3.955-1.243 1.356-.339 1.13-.113 1.13-1.469 0-.678-.226-.791-.565-.791h-6.554c-1.13-.113-1.356-.339-1.356-.678.904-.678 1.13-.565 1.356-.565h6.441c.565 0 .791-.226.904-.791.226-1.582.226-1.582-1.243-2.034-1.356-.339-2.599-.791-3.842-1.13-1.017-.339-1.13-.678-1.13-1.017 1.017-.452 1.356-.339 1.582-.226 1.582.452 3.051.904 4.633 1.356 2.034-3.164 3.842-5.424 6.215-7.119.452-.339.565-.678.565-1.243v-13.899c.113-.678.565-.904 1.017-.565 4.52 4.181 8.475 7.797 12.317 11.413 1.017 1.017.678 1.017 1.921.113a24.455 24.455 0 0128.25 0c1.017.791.791 1.017 1.921-.113 3.955-3.616 7.91-7.232 11.865-10.961.339-.226.678-.791 1.243-.565.678.226.452.791.452 1.243v20.34c0 1.356 0 1.356 1.243.904 1.017-.226 2.034-.565 3.164-.904 1.582.678 1.469.904 1.017 1.13l-2.599.791-2.26.678c-.678 1.017-.678 1.695-.565 2.373 3.277.226 5.198.226 7.232.226 1.13.113 1.356.339 1.243.678-.791.678-1.13.678-1.356.678h-6.328c-.904 0-.904 0-.904.791 0 1.469-.113 1.13 1.13 1.469 1.13.452 2.486.678 3.729 1.13 1.017.452 1.13.678 1.017 1.13-2.712-.226-3.842-.565-5.198-.904-.678 1.808-.678 3.164-.678 4.52 0 .452.113.678.678.678h19.549c.452 0 1.017 0 1.469.226v.904c-1.13.226-1.469.226-1.808.226H449.7z"
                  fill="#151d38"></path>
            <path d="M502.132 231.52v-.113h50.398c1.13 0 1.13 0 1.13-1.13v-70.173c0-1.13-.678-1.921-1.921-2.034h-98.536c-1.695.113-2.373.791-2.373 2.373v69.947c0 1.13 0 1.13 1.13 1.13h50.172z"
                  fill="#ccd6da"></path>
            <path d="M534.676 156.714h16.498c1.695 0 2.938 1.017 3.277 2.599.113.339.113.678.113 1.13v18.758c0 1.017.113 1.017.904 1.017 6.554.904 13.108.452 19.549-1.243 14.69-3.842 25.764-12.43 33.335-25.538 2.26-3.729 3.842-7.684 4.972-11.865.226-.904.226-.904-.452-1.13-.452-.113-.904-.226-1.243-.339-.791-.339-1.017-.565-.904-1.017.113-.565.565-.565 1.356-.339 2.147.791 4.294 1.017 6.554.565 6.667-1.243 10.961-8.023 9.266-14.69-1.808-6.667-8.814-10.509-15.255-8.249-.339 0-.565.226-.904.226-.339.113-.565-.113-.678-.339-.113-.339 0-.565.226-.791a.863.863 0 01.565-.226c.452-.226.904-.339 1.356-.452.113-.113.226-.113.339-.226.113-.226-.113-.226-.339-.226-.113-.113-.339-.113-.565-.226a41.88 41.88 0 01-9.605-4.633c-5.424-3.616-9.605-8.136-12.317-14.125-1.243-2.825-2.034-5.763-2.599-8.814-.113-.904-.113-.904-.904-.565-.226.226-.452.339-.791.452-3.955 2.373-8.023 4.407-12.43 5.989-9.266 3.503-18.871 4.972-28.702 3.164-6.78-1.243-13.221-3.729-18.758-8.023-.791-.452-.791-.452-1.356.113-4.972 4.859-9.04 10.396-11.865 16.724-4.52 9.944-5.876 20.227-4.181 31.075 1.13 7.232 3.729 14.012 7.571 20.227.452.791 1.017 1.13 1.921 1.13 5.311-.113 10.622-.113 16.046-.113z"
                  fill="#fae0d6"></path>
            <path d="M554.79 206.66v24.521c0 .565.226.791.791.791h17.289c1.017 0 1.13.113 1.13 1.017v4.52c0 .678-.113.791.678.791h17.402c.678 0 .791-.226.791-.678.226-1.695.678-3.277 1.582-4.633.339-.565.339-1.017.113-1.582l-2.712-8.475c-2.26-6.893-4.52-13.899-6.78-20.792 0-.226-.113-.452-.226-.678 0-.452.113-.791.565-.791.339-.113.565 0 .791.339 0 .113 0 .339.113.452 1.582 4.859 3.164 9.831 4.746 14.69 1.469 4.633 2.938 9.266 4.52 13.899.226.791.226.791.791.226 1.695-1.582 3.616-2.599 5.763-3.164.678-.113.791-.113.565-.791-.339-1.469-.791-3.051-1.13-4.52-1.017-4.633 1.808-9.266 6.215-10.396.339-.113.565-.113.904-.226.339 0 .452-.226.339-.565-.113-.226-.113-.339-.226-.452-3.503-11.074-7.119-22.035-10.622-33.109l-2.034-6.102c-.113-.452-.339-.678-.678-.226a1.56 1.56 0 01-.452.339 45.61 45.61 0 01-9.605 5.65c-6.554 3.051-13.56 4.859-20.792 5.085-3.051.113-6.215.113-9.153-.339-.565-.113-.678.113-.678.565v24.634z"
                  fill="#fff3a2"></path>
            <path d="M698.978 238.187h19.775c1.017 0 1.017 0 1.017-.904v-33.448c0-.226.113-.452-.113-.565-.226-.113-.339.226-.565.339-2.373 2.26-4.859 4.52-7.345 6.78-1.469 1.356-2.938 2.825-4.407 4.181-.678.565-.791.565-1.469.113-.226-.226-.339-.339-.565-.452-3.503-2.712-7.458-4.294-11.978-4.633-5.876-.452-11.187 1.13-15.933 4.859-1.017.791-1.017.791-2.034-.113l-.113-.113-10.848-10.17c-.226-.226-.452-.791-.904-.565-.226.113-.113.565-.113.904v11.865c0 .565 0 1.017-.565 1.356-6.554 4.407-8.023 13.108-4.294 19.775.339.678.791.904 1.582.904h14.351c.339 0 .791.113.904-.226.113-.226-.339-.452-.565-.678-2.373-2.599-3.051-5.537-2.034-8.814.904-3.277 3.277-5.311 6.554-5.989.678-.226 1.356-.339 2.034-.226.339 0 .565.226.565.678 0 .339-.226.565-.565.565-.452.113-.791.113-1.13.113-3.164.452-5.876 2.825-6.441 5.876a7.537 7.537 0 003.39 8.023c.678.452 1.356.678 2.26.678 6.667-.113 13.108-.113 19.549-.113z"
                  fill="#c27659"></path>
            <path d="M502.245 232.65c-9.266.113-18.532.113-27.685.113h-23.052c-.452 0-.678.113-.678.565v2.373c0 1.469 0 1.469 1.695 1.469h38.759c20.227 0 40.454-.113 60.681-.113h.791c.678 0 .904-.226.904-.791v-3.051c0-.452-.226-.565-.678-.565h-50.737zm112.435 5.65h19.775c.452 0 .565-.113.565-.565a11.348 11.348 0 00-2.034-5.311c-.226-.226-.339-.226-.452.113-.113.113-.113.339-.226.452-1.469 3.164-5.085 4.068-7.797 1.808-.452-.452-.791-.452-1.356-.226-1.695.678-3.277.452-4.746-.565-1.582-1.13-2.26-2.599-2.147-4.633.113-.678 0-.678-.565-.565-1.356.452-2.712.226-3.955-.452-.226-.226-.565-.226-.904-.226h-6.215c-4.746.113-8.814 3.503-10.057 8.249-.113.452-.226.904-.226 1.469 0 .339.113.452.452.452h19.888z"
                  fill="#ccd6da"></path>
            <path d="M606.77 226.209h2.486c.339 0 .452-.113.339-.452-.904-2.373-1.017-4.972-1.582-7.458-.113-.565.113-.904.452-1.017.452-.113.791.226.904.791l.339 1.695c.226 1.469.452 2.938.791 4.407.452 1.921 2.373 3.164 4.52 2.712 2.034-.339 3.277-2.034 3.051-4.068-.339-1.695-.565-3.39-1.017-4.972-.904-3.729-4.859-6.102-8.814-5.424-3.842.678-6.554 4.407-5.876 8.023.339 1.695.904 3.39 1.243 5.198.113.339.339.565.791.565h2.373zm11.3 3.729c.113 1.356.452 2.373 1.469 3.051 2.147 1.582 5.085.791 5.989-1.695.904-2.373 1.695-4.859 2.486-7.232.113-.339.113-.565.226-.904.113-1.808-.904-3.39-2.712-3.955-1.695-.452-3.616.226-4.407 1.808-.565 1.13-1.017 2.26-1.243 3.503-.113.904-.339 1.808-.791 2.599a7.135 7.135 0 00-1.017 2.825z"
                  fill="#fae0d6"></path>
            <path d="M563.604 237.17h8.475c.452-.113.791-.226.791-.678v-3.39c0-.339-.226-.452-.452-.452h-16.837c-.565 0-.791.226-.791.678v3.051c0 .791 0 .791.904.791h7.91z"
                  fill="#ccd6da"></path>
            <path d="M632.76 228.582c0-2.034-1.356-3.503-3.277-3.729-.904-.226-1.017-.113-1.243.565-.565 1.469-1.017 2.825-1.582 4.181-.452 1.243-.678 2.599-1.695 3.729-.339.339 0 .565.226.791 2.034 1.469 5.085.791 6.215-1.469.452-1.017.791-2.147 1.243-3.277.113-.339.113-.678.113-.791z"
                  fill="#fae0d6"></path>
            <path d="M515.24 195.586c-.339 5.537-3.729 9.605-8.814 10.735-6.441 1.582-12.769-2.938-13.673-9.492-.791-5.65 2.825-11.3 8.588-12.656 1.243-.226 1.356-.226 1.582 1.017.791 4.294 3.616 7.458 7.797 8.475 1.017.226 1.921.226 2.938.113 1.356-.113 1.469 0 1.582 1.356v.452z"
                  fill="#151d38"></path>
            <path d="M504.166 205.53c.678 0 1.582-.113 2.486-.339 4.068-1.13 7.232-5.085 7.458-9.153 0-1.017 0-1.017-.791-1.017-5.537.113-10.283-3.616-11.413-8.927-.339-1.243-.452-.904-1.243-.678-4.633 1.582-7.571 6.441-6.78 11.526.791 4.859 5.085 8.588 10.283 8.588z"
                  fill="#fff"></path>
            <path d="M553.434 115.582h14.916c2.26 0 4.52 0 6.78.113 1.13 0 1.356.452.904 1.356-3.39 6.328-8.249 10.735-15.255 12.317-7.119 1.469-13.334-.452-18.645-5.537-2.147-1.921-3.729-4.294-4.972-6.893-.113-.339-.339-.565-.339-.791-.226-.565 0-.791.565-1.017h.565c4.407 0 8.814.113 13.221.113.791 0 1.469.113 2.26.113v.226z"
                  fill="#151d38"></path>
            <path d="M557.163 116.486h-4.068c-1.695 0-3.277 0-4.972-.113-2.825-.113-5.763-.113-8.588-.113-.678 0-.678 0-.339.565 1.13 2.034 2.599 3.842 4.294 5.424 4.972 4.407 10.848 6.215 17.402 4.859 6.102-1.13 10.622-4.52 13.899-9.492.565-.904.565-1.017-.565-1.017-5.65 0-11.413-.113-17.063-.113z"
                  fill="#fff"></path>
            <path d="M514.11 122.475c0-3.729 2.825-7.345 7.345-7.345 4.068 0 7.345 3.277 7.345 7.345s-3.277 7.345-7.345 7.345-7.345-3.277-7.345-7.345zm87.01 1.13c.113 3.503-2.825 7.345-7.345 7.345-4.068 0-7.345-3.277-7.345-7.345s3.164-7.345 7.345-7.345c4.407-.113 7.571 3.616 7.345 7.345z"
                  fill="#e5384a"></path>
            <path d="M531.625 106.09c2.26 0 3.955 1.695 3.955 3.955S533.885 114 531.738 114c-2.26 0-4.068-1.695-4.068-3.955 0-2.147 1.695-3.955 3.955-3.955zm50.85 1.13c2.26 0 3.955 1.695 3.955 4.068 0 2.147-1.808 3.842-3.955 3.842s-3.955-1.808-3.955-3.955c0-2.26 1.695-3.955 3.955-3.955zm41.245 20.453c0 4.52-4.746 7.797-9.266 6.328-.113-.113-.226-.113-.339-.226-.452-.113-.678-.452-.452-.904.113-.339.452-.452.904-.339.226 0 .452.226.678.226 3.164.791 6.441-1.13 7.006-4.068.678-3.164-1.469-6.102-4.746-6.554-.226 0-.565-.113-.904-.113-.226 0-.452-.339-.452-.565 0-.452.226-.565.565-.678h.791c3.616.452 6.215 3.39 6.215 6.893zm-66.67-21.922c0 .339-.226.452-.565.678-.904.452-1.808.904-2.712 1.469-.339.113-.452.339 0 .565.678.565 1.469 1.13 2.147 1.695.226.113.452.339.565.452.226.226.226.565.113.904-.226.226-.452.226-.791.226a1.56 1.56 0 00-.452-.339c-1.13-.904-2.26-1.695-3.39-2.599-.791-.678-.791-1.13.113-1.695 1.243-.678 2.599-1.356 3.842-2.034.678-.226 1.13 0 1.13.678zm-35.03 2.486c.113-3.277 2.26-5.989 5.311-6.554.339-.113.678-.113 1.017-.113.226.113.452.339.452.565 0 .339-.113.678-.339.791-.339 0-.678.113-.904.113-2.373.565-3.955 2.373-4.181 4.972v.791c-.113.452-.226.678-.678.678-.452 0-.565-.339-.678-.791v-.452zm68.93 0v.791c-.113.339-.339.452-.678.452s-.565-.226-.565-.452v-.678c-.226-2.712-1.921-4.746-4.407-5.311-.226 0-.339 0-.452-.113-.452-.113-.791-.339-.678-.791.113-.565.452-.565.904-.565 1.469.226 2.825.791 3.842 1.808 1.243 1.356 1.921 2.938 2.034 4.859zM691.181 234.91c-1.695-.113-2.938-.565-3.729-1.695-.339-.452-.565-.452-.904 0-1.582 1.921-3.955 2.26-5.763.904-.678-.452-1.243-1.017-1.582-1.808-.113-.339-.226-.904.226-1.13.452-.226.791 0 1.017.452.113.339.339.565.565.904 1.469 1.695 4.068 1.13 4.972-1.017.113-.452.226-.791-.339-.904-.904-.226-1.356-.904-1.921-1.582-.226-.226-.339-.565-.452-.904-.113-.678.113-1.13.791-1.13h5.876c.565 0 .791.452.678 1.13-.339 1.13-1.13 1.695-1.921 2.26-.339.226-.791.226-.904.565 0 .452.226.791.452 1.243 1.243 1.808 3.729 1.808 5.085 0l.339-.678c.226-.339.565-.452.904-.226.339.113.452.452.226.791a4.92 4.92 0 01-1.13 1.808c-.904.678-1.808 1.017-2.486 1.017zm15.029-12.43c1.921 0 3.39 1.469 3.39 3.39s-1.582 3.39-3.503 3.39-3.277-1.582-3.277-3.503 1.469-3.277 3.39-3.277zm-39.55 6.78c-1.921 0-3.39-1.469-3.39-3.39s1.356-3.39 3.277-3.39c2.034 0 3.503 1.469 3.503 3.39s-1.469 3.39-3.39 3.39z"
                  fill="#151d38"></path>
        </g>
        <g fill="#7da159" fill-rule="nonzero">
            <path d="M624.018 254.634h3.475v16.436h-3.475v-16.436zm9.696 9.31v7.126h-3.42v-12.328h3.26v2.176h.144q.409-1.076 1.372-1.706.962-.63 2.335-.63 1.284 0 2.239.562.955.562 1.485 1.601.53 1.04.53 2.476v7.849h-3.42v-7.239q.01-1.132-.576-1.77-.588-.638-1.614-.638-.69 0-1.215.297-.527.298-.82.863-.294.566-.3 1.36zm16.204 7.367q-1.895 0-3.254-.807-1.362-.806-2.088-2.243-.726-1.436-.726-3.307 0-1.893.734-3.326t2.09-2.239q1.357-.807 3.227-.807 1.614 0 2.825.586t1.918 1.645q.706 1.06.78 2.488h-3.228q-.136-.923-.718-1.488-.581-.566-1.52-.566-.795 0-1.385.43-.59.429-.92 1.247-.327.82-.327 1.982 0 1.18.324 2.007t.919 1.26q.594.434 1.388.434.586 0 1.056-.241.469-.242.778-.703.309-.461.405-1.112h3.226q-.079 1.413-.766 2.485-.686 1.071-1.89 1.672-1.204.603-2.85.603zm13.273 0q-1.87 0-3.23-.8-1.36-.797-2.1-2.23-.737-1.433-.737-3.327 0-1.91.738-3.342.739-1.433 2.1-2.23 1.36-.8 3.229-.8 1.87 0 3.232.8 1.36.797 2.097 2.23.739 1.433.739 3.342 0 1.894-.739 3.327-.738 1.433-2.098 2.23-1.361.8-3.231.8zm.017-2.649q.85 0 1.42-.486t.862-1.328q.294-.843.294-1.917 0-1.076-.294-1.919-.292-.842-.862-1.332-.57-.49-1.42-.49-.859 0-1.44.49-.583.49-.876 1.333-.293.842-.293 1.918 0 1.074.293 1.917t.875 1.33q.582.485 1.44.485zm11.701 2.408h-3.42v-12.328h3.26v2.176h.144q.384-1.085 1.284-1.71.898-.626 2.15-.626 1.268 0 2.159.63.892.63 1.188 1.706h.13q.375-1.06 1.366-1.698.993-.638 2.349-.638 1.725 0 2.804 1.096 1.08 1.095 1.08 3.101v8.291h-3.411v-7.616q0-1.029-.546-1.542-.546-.513-1.364-.513-.93 0-1.453.59-.522.59-.522 1.553v7.528h-3.314v-7.689q0-.907-.518-1.444-.517-.538-1.36-.538-.57 0-1.023.285-.454.285-.719.795-.264.51-.264 1.192v7.399zm20.609 0H692.1v-12.328h3.418v12.328zm-1.693-13.916q-.763 0-1.308-.51-.546-.51-.546-1.223 0-.707.546-1.216.545-.51 1.3-.51.77 0 1.312.509.543.51.543 1.217 0 .714-.543 1.223-.542.509-1.304.509zm7.841 6.79v7.126h-3.42v-12.328h3.26v2.176h.143q.41-1.076 1.373-1.706.963-.63 2.336-.63 1.284 0 2.239.562.954.562 1.484 1.601.53 1.04.53 2.476v7.849h-3.42v-7.239q.009-1.132-.577-1.77-.585-.638-1.613-.638-.69 0-1.216.297-.525.298-.818.863-.294.566-.3 1.36zm16.188 11.925q-1.662 0-2.846-.45-1.183-.448-1.881-1.211-.699-.763-.908-1.694l3.162-.425q.145.337.458.639.313.3.83.492.518.192 1.265.192 1.115 0 1.842-.528.726-.53.726-1.742v-2.255h-.144q-.225.514-.675.972-.449.456-1.155.745t-1.686.29q-1.389 0-2.524-.647t-1.806-1.982q-.67-1.336-.67-3.383 0-2.095.682-3.498.683-1.405 1.819-2.103 1.135-.699 2.491-.699 1.035 0 1.734.35t1.127.866q.43.518.663 1.015h.128v-2.07h3.395v12.448q0 1.54-.77 2.58-.771 1.04-2.132 1.568-1.36.531-3.125.531zm.072-7.544q.826 0 1.401-.413.573-.414.881-1.187.31-.775.31-1.859t-.305-1.882q-.305-.798-.883-1.24-.578-.44-1.404-.44-.843 0-1.42.451-.58.455-.875 1.257-.297.802-.297 1.853 0 1.07.3 1.842.302.775.875 1.198.574.42 1.417.42z"></path>
            <path transform="translate(449.7,46.2) scale(1.13,1.13)"></path>
            <path d="M623.087 283.602h7.424v2.57h-7.424v-2.57zm1.686 8.989v-11.942h3.418v11.492q0 .475.145.735t.406.366q.26.104.605.104.241 0 .482-.044l.37-.068.537 2.543q-.256.08-.723.19-.464.108-1.13.131-1.237.049-2.164-.328-.927-.378-1.44-1.172-.514-.795-.506-2.007zm11.38 3.339h-3.419v-12.328h3.315v2.151h.128q.337-1.147 1.132-1.737.795-.59 1.83-.59.256 0 .554.032t.522.088v3.034q-.241-.072-.667-.128-.425-.057-.779-.057-.753 0-1.344.325-.59.326-.93.904-.342.577-.342 1.332v6.974zm8.988.233q-1.18 0-2.101-.414-.924-.413-1.458-1.227-.533-.815-.533-2.034 0-1.028.377-1.727t1.028-1.123q.649-.426 1.48-.642.831-.217 1.745-.305 1.076-.113 1.734-.212.658-.102.955-.302.297-.2.297-.593v-.049q0-.763-.477-1.18-.478-.418-1.353-.418-.923 0-1.469.407-.546.405-.722 1.015l-3.162-.257q.241-1.124.947-1.947.707-.822 1.826-1.267 1.12-.446 2.596-.446 1.028 0 1.97.241t1.678.746q.734.506 1.16 1.296.425.791.425 1.89v8.315h-3.243v-1.71h-.096q-.296.579-.794 1.016-.498.437-1.196.682-.698.245-1.614.245zm.98-2.36q.754 0 1.332-.3.578-.302.907-.815.33-.514.33-1.164v-1.308q-.16.105-.438.188-.278.085-.621.153-.346.068-.692.12-.344.053-.626.092-.6.088-1.05.282-.45.192-.699.517-.249.326-.249.807 0 .698.509 1.062.51.366 1.297.366zm7.64-10.2h7.608v2.568h-7.608v-2.568zm5.153 12.327h-3.412v-13.218q0-1.34.527-2.223.525-.883 1.44-1.325.915-.44 2.079-.44.786 0 1.44.12.655.12.976.216l-.61 2.569q-.202-.065-.494-.121-.293-.057-.598-.057-.755 0-1.051.35-.297.349-.297.975v13.154zm3.563-12.328h7.608v2.57h-7.608v-2.57zm5.153 12.328h-3.412v-13.218q0-1.34.527-2.223.525-.883 1.44-1.325.916-.44 2.078-.44.787 0 1.441.12t.975.216l-.61 2.569q-.2-.065-.494-.121-.292-.057-.597-.057-.754 0-1.051.35-.297.349-.297.975v13.154zm7.96 0h-3.418v-12.328h3.418v12.328zm-1.692-13.916q-.763 0-1.309-.51-.546-.51-.546-1.223 0-.707.546-1.216.546-.51 1.3-.51.771 0 1.313.509.542.51.542 1.217 0 .714-.542 1.223-.543.509-1.304.509zm9.991 14.157q-1.894 0-3.254-.807-1.36-.806-2.086-2.243-.727-1.436-.727-3.307 0-1.893.735-3.326t2.09-2.239q1.356-.807 3.226-.807 1.614 0 2.825.586 1.212.586 1.918 1.645.706 1.06.78 2.488h-3.228q-.135-.923-.717-1.488-.582-.566-1.521-.566-.795 0-1.384.43-.59.429-.92 1.247-.328.82-.328 1.982 0 1.18.324 2.007t.919 1.26q.594.434 1.389.434.585 0 1.055-.241.47-.242.779-.703.308-.461.404-1.112h3.226q-.079 1.413-.766 2.485-.686 1.071-1.89 1.672-1.204.603-2.848.603z"></path>
        </g>
    </g>
    <g stroke="#f5a623" stroke-dasharray="6" stroke-width="13" fill="none" fill-rule="evenodd">
        <path d="M724.84 667.996V537.255H595.455V239.5" stroke-dasharray="12"
              style="animation:4s linear infinite both a0_o, 4s linear infinite both a0_do"></path>
        <path d="M468.556 667.996V537.255h129.385V239.5" stroke-dasharray="12" opacity="0"
              style="animation:4s linear infinite both a1_o, 4s linear infinite both a1_do"></path>
    </g>
</svg>